<?xml version="1.0" encoding="UTF-8" standalone="no" ?>
<!DOCTYPE svg PUBLIC "-//W3C//DTD SVG 1.1//EN" "http://www.w3.org/Graphics/SVG/1.1/DTD/svg11.dtd">
<svg xmlns="http://www.w3.org/2000/svg" xmlns:xlink="http://www.w3.org/1999/xlink" version="1.1" width="1080" height="1080" viewBox="0 0 1080 1080" xml:space="preserve">
<desc>Created with Fabric.js 5.2.4</desc>
<defs>
</defs>
<g transform="matrix(1 0 0 1 540 540)" id="38c3151b-fd7c-4ef1-8bf7-34370f12627b"  >
<rect style="stroke: none; stroke-width: 1; stroke-dasharray: none; stroke-linecap: butt; stroke-dashoffset: 0; stroke-linejoin: miter; stroke-miterlimit: 4; fill: rgb(255,255,255); fill-rule: nonzero; opacity: 1; visibility: hidden;" vector-effect="non-scaling-stroke"  x="-540" y="-540" rx="0" ry="0" width="1080" height="1080" />
</g>
<g transform="matrix(1 0 0 1 540 540)" id="b09aa6e0-b6f2-468a-9151-fa9d320259c7"  >
</g>
<g transform="matrix(1 0 0 1 540 540)"  >
<g style="" vector-effect="non-scaling-stroke"   >
		<g transform="matrix(1 0 0 1 -73.8 -22.61)" clip-path="url(#CLIPPATH_5)"  >
<clipPath id="CLIPPATH_5" >
	<rect transform="matrix(1 0 0 1 73.8 22.61)" id="clip0_660_1648" x="-90" y="-47.1094" rx="0" ry="0" width="180" height="94.2188" />
</clipPath>
<path style="stroke: none; stroke-width: 1; stroke-dasharray: none; stroke-linecap: butt; stroke-dashoffset: 0; stroke-linejoin: miter; stroke-miterlimit: 4; fill: rgb(255,229,0); fill-rule: nonzero; opacity: 1;" vector-effect="non-scaling-stroke"  transform=" translate(-16.2, -24.5)" d="M 32.4004 33.3826 C 32.4004 28.8778 29.9612 25.1843 26.0731 23.3482 C 29.225 21.4267 31.2886 18.1196 31.2886 14.4325 C 31.2886 8.33289 25.9536 3.86865 18.6361 3.86865 L 0 3.86865 L 0 45.1357 L 19.016 45.1357 C 26.6322 45.1357 32.4004 40.0651 32.4004 33.3826 Z M 10.9154 12.7139 L 16.6579 12.7139 C 19.0352 12.7139 20.4991 14.1635 20.4991 16.307 C 20.4991 18.442 19.0331 19.9002 16.6579 19.9002 L 10.9154 19.9002 L 10.9154 12.7139 Z M 10.9154 35.7994 L 10.9154 28.2928 L 17.0911 28.2928 C 19.5516 28.2928 21.1606 29.8364 21.1606 32.029 C 21.1606 34.2558 19.5516 35.7994 17.0911 35.7994 L 10.9154 35.7994 Z" stroke-linecap="round" />
</g>
		<g transform="matrix(1 0 0 1 -49.23 -24.54)" clip-path="url(#CLIPPATH_6)"  >
<clipPath id="CLIPPATH_6" >
	<rect transform="matrix(1 0 0 1 49.23 24.54)" id="clip0_660_1648" x="-90" y="-47.1094" rx="0" ry="0" width="180" height="94.2188" />
</clipPath>
<path style="stroke: none; stroke-width: 1; stroke-dasharray: none; stroke-linecap: butt; stroke-dashoffset: 0; stroke-linejoin: miter; stroke-miterlimit: 4; fill: rgb(255,229,0); fill-rule: nonzero; opacity: 1;" vector-effect="non-scaling-stroke"  transform=" translate(-40.77, -22.57)" d="M 46.2553 0 L 35.293 0 L 35.293 45.1335 L 46.2553 45.1335 L 46.2553 0 Z" stroke-linecap="round" />
</g>
		<g transform="matrix(1 0 0 1 -34.32 -17.9)" clip-path="url(#CLIPPATH_7)"  >
<clipPath id="CLIPPATH_7" >
	<rect transform="matrix(1 0 0 1 34.32 17.9)" id="clip0_660_1648" x="-90" y="-47.1094" rx="0" ry="0" width="180" height="94.2188" />
</clipPath>
<path style="stroke: none; stroke-width: 1; stroke-dasharray: none; stroke-linecap: butt; stroke-dashoffset: 0; stroke-linejoin: miter; stroke-miterlimit: 4; fill: rgb(255,229,0); fill-rule: nonzero; opacity: 1;" vector-effect="non-scaling-stroke"  transform=" translate(-55.68, -29.21)" d="M 61.1654 13.2925 L 50.2031 13.2925 L 50.2031 45.1336 L 61.1654 45.1336 L 61.1654 13.2925 Z" stroke-linecap="round" />
</g>
		<g transform="matrix(1 0 0 1 -34.32 -42.46)" clip-path="url(#CLIPPATH_8)"  >
<clipPath id="CLIPPATH_8" >
	<rect transform="matrix(1 0 0 1 34.32 42.46)" id="clip0_660_1648" x="-90" y="-47.1094" rx="0" ry="0" width="180" height="94.2188" />
</clipPath>
<path style="stroke: none; stroke-width: 1; stroke-dasharray: none; stroke-linecap: butt; stroke-dashoffset: 0; stroke-linejoin: miter; stroke-miterlimit: 4; fill: rgb(255,229,0); fill-rule: nonzero; opacity: 1;" vector-effect="non-scaling-stroke"  transform=" translate(-55.68, -4.65)" d="M 61.1654 0 L 50.2031 0 L 50.2031 9.30851 L 61.1654 9.30851 L 61.1654 0 Z" stroke-linecap="round" />
</g>
		<g transform="matrix(1 0 0 1 -12.38 -17.9)" clip-path="url(#CLIPPATH_9)"  >
<clipPath id="CLIPPATH_9" >
	<rect transform="matrix(1 0 0 1 12.38 17.9)" id="clip0_660_1648" x="-90" y="-47.1094" rx="0" ry="0" width="180" height="94.2188" />
</clipPath>
<path style="stroke: none; stroke-width: 1; stroke-dasharray: none; stroke-linecap: butt; stroke-dashoffset: 0; stroke-linejoin: miter; stroke-miterlimit: 4; fill: rgb(255,229,0); fill-rule: nonzero; opacity: 1;" vector-effect="non-scaling-stroke"  transform=" translate(-77.62, -29.21)" d="M 79.9729 25.1563 C 76.949 24.6162 74.5163 24.1934 74.5163 22.3808 C 74.5163 20.9034 75.6964 20.0324 77.4526 20.0324 C 79.4394 20.0324 80.8052 20.9782 80.8052 23.0107 L 91.0696 23.0107 C 90.9437 16.5587 85.692 12.2461 77.5871 12.2461 C 69.4331 12.2461 63.9957 16.3645 63.9957 22.7481 C 63.9957 30.4703 70.5385 31.9605 75.4744 32.7611 C 78.5303 33.2671 80.9396 33.7902 80.9396 35.6262 C 80.9396 37.2723 79.4202 38.0921 77.8176 38.0921 C 75.7369 38.0921 74.1172 37.0247 74.1172 34.6911 L 63.5625 34.6911 C 63.6628 41.5892 68.9338 46.173 77.6084 46.173 C 86.0676 46.173 91.68 41.8198 91.68 35.1651 C 91.6778 27.0949 84.9942 26.0487 79.9729 25.1563 Z" stroke-linecap="round" />
</g>
		<g transform="matrix(1 0 0 1 71.11 22.61)" clip-path="url(#CLIPPATH_10)"  >
<clipPath id="CLIPPATH_10" >
	<rect transform="matrix(1 0 0 1 -71.12 -22.61)" id="clip0_660_1648" x="-90" y="-47.1094" rx="0" ry="0" width="180" height="94.2188" />
</clipPath>
<path style="stroke: none; stroke-width: 1; stroke-dasharray: none; stroke-linecap: butt; stroke-dashoffset: 0; stroke-linejoin: miter; stroke-miterlimit: 4; fill: rgb(255,229,0); fill-rule: nonzero; opacity: 1;" vector-effect="non-scaling-stroke"  transform=" translate(-161.12, -69.72)" d="M 163.834 80.6957 L 169.327 80.6957 L 169.327 58.7524 L 163.834 58.7524 C 160.633 58.7524 157.904 59.8199 155.922 61.8204 C 153.939 63.8209 152.906 66.5622 152.906 69.7583 C 152.908 76.2998 157.3 80.6957 163.834 80.6957 Z M 163.834 59.4997 L 168.58 59.4997 L 168.58 79.9485 L 163.834 79.9485 C 157.725 79.9485 153.653 75.892 153.653 69.7583 C 153.655 63.6693 157.727 59.4933 163.834 59.4933 L 163.834 59.4997 Z" stroke-linecap="round" />
</g>
		<g transform="matrix(1 0 0 1 71 22.61)" clip-path="url(#CLIPPATH_11)"  >
<clipPath id="CLIPPATH_11" >
	<rect transform="matrix(1 0 0 1 -71.01 -22.62)" id="clip0_660_1648" x="-90" y="-47.1094" rx="0" ry="0" width="180" height="94.2188" />
</clipPath>
<path style="stroke: none; stroke-width: 1; stroke-dasharray: none; stroke-linecap: butt; stroke-dashoffset: 0; stroke-linejoin: miter; stroke-miterlimit: 4; fill: rgb(255,229,0); fill-rule: nonzero; opacity: 1;" vector-effect="non-scaling-stroke"  transform=" translate(-161.01, -69.73)" d="M 142.008 69.7583 C 142.008 81.8188 150.815 90.363 163.305 90.363 L 180.004 90.363 L 180.004 49.0874 L 163.305 49.0874 C 150.849 49.0874 142.008 57.7127 142.008 69.7583 Z M 179.257 49.8346 L 179.257 89.6157 L 163.305 89.6157 C 151.205 89.6157 142.755 81.4494 142.755 69.7604 C 142.755 64.1326 144.797 59.0492 148.516 55.4432 C 152.236 51.8373 157.492 49.8368 163.316 49.8368 L 179.257 49.8346 Z" stroke-linecap="round" />
</g>
		<g transform="matrix(1 0 0 1 43.7 17.9)" clip-path="url(#CLIPPATH_12)"  >
<clipPath id="CLIPPATH_12" >
	<rect transform="matrix(1 0 0 1 -43.7 -17.9)" id="clip0_660_1648" x="-90" y="-47.1094" rx="0" ry="0" width="180" height="94.2188" />
</clipPath>
<path style="stroke: none; stroke-width: 1; stroke-dasharray: none; stroke-linecap: butt; stroke-dashoffset: 0; stroke-linejoin: miter; stroke-miterlimit: 4; fill: rgb(255,229,0); fill-rule: nonzero; opacity: 1;" vector-effect="non-scaling-stroke"  transform=" translate(-133.7, -65.01)" d="M 128.219 80.9285 L 139.181 80.9285 L 139.181 49.0874 L 128.219 49.0874 L 128.219 80.9285 Z M 128.966 49.8346 L 138.445 49.8346 L 138.445 80.1812 L 128.976 80.1812 L 128.966 49.8346 Z" stroke-linecap="round" />
</g>
		<g transform="matrix(1 0 0 1 43.7 42.46)" clip-path="url(#CLIPPATH_13)"  >
<clipPath id="CLIPPATH_13" >
	<rect transform="matrix(1 0 0 1 -43.7 -42.46)" id="clip0_660_1648" x="-90" y="-47.1094" rx="0" ry="0" width="180" height="94.2188" />
</clipPath>
<path style="stroke: none; stroke-width: 1; stroke-dasharray: none; stroke-linecap: butt; stroke-dashoffset: 0; stroke-linejoin: miter; stroke-miterlimit: 4; fill: rgb(255,229,0); fill-rule: nonzero; opacity: 1;" vector-effect="non-scaling-stroke"  transform=" translate(-133.7, -89.57)" d="M 128.219 94.2208 L 139.181 94.2208 L 139.181 84.9124 L 128.219 84.9124 L 128.219 94.2208 Z M 128.966 85.6596 L 138.445 85.6596 L 138.445 93.4736 L 128.976 93.4736 L 128.966 85.6596 Z" stroke-linecap="round" />
</g>
		<g transform="matrix(1 0 0 1 18 12.07)" clip-path="url(#CLIPPATH_14)"  >
<clipPath id="CLIPPATH_14" >
	<rect transform="matrix(1 0 0 1 -18 -12.07)" id="clip0_660_1648" x="-90" y="-47.1094" rx="0" ry="0" width="180" height="94.2188" />
</clipPath>
<path style="stroke: none; stroke-width: 1; stroke-dasharray: none; stroke-linecap: butt; stroke-dashoffset: 0; stroke-linejoin: miter; stroke-miterlimit: 4; fill: rgb(255,229,0); fill-rule: nonzero; opacity: 1;" vector-effect="non-scaling-stroke"  transform=" translate(-108, -59.18)" d="M 109.484 49.9286 C 106.545 49.9169 103.663 50.7458 101.179 52.3176 L 101.179 51.3676 C 101.179 47.5823 104.132 45.2466 107.805 45.2466 C 110.468 45.2466 113.185 46.3931 113.942 48.5216 L 124.523 48.5216 C 123.057 40.9745 116.736 36.4185 107.705 36.4185 C 97.1927 36.4185 90.6328 42.6099 90.6328 52.6229 L 90.6328 80.9263 L 98.0442 80.9263 L 99.4355 78.2533 C 102.229 80.6462 105.788 81.9561 109.465 81.9447 C 118.59 81.9447 125.37 75.0082 125.37 65.9324 C 125.389 56.7178 118.609 49.9286 109.484 49.9286 Z M 109.484 81.1996 C 105.98 81.2214 102.587 79.9739 99.9306 77.6876 L 99.2179 77.077 L 97.6024 80.1812 L 91.3904 80.1812 L 91.3904 52.6229 C 91.3904 47.926 92.897 44.0147 95.7458 41.3076 C 98.5947 38.6004 102.739 37.1614 107.696 37.1614 C 116.006 37.1614 121.874 41.109 123.582 47.7701 L 114.427 47.7701 C 113.294 45.5113 110.353 44.4951 107.797 44.4951 C 103.529 44.4951 100.424 47.3837 100.424 51.3633 L 100.424 53.6733 L 101.572 52.9453 C 103.935 51.4532 106.673 50.6646 109.467 50.6716 C 113.684 50.6716 117.536 52.2088 120.312 54.9992 C 123.089 57.7896 124.625 61.6752 124.625 65.9281 C 124.642 74.6367 118.125 81.1996 109.484 81.1996 Z" stroke-linecap="round" />
</g>
		<g transform="matrix(1 0 0 1 17.68 18.81)" clip-path="url(#CLIPPATH_15)"  >
<clipPath id="CLIPPATH_15" >
	<rect transform="matrix(1 0 0 1 -17.68 -18.81)" id="clip0_660_1648" x="-90" y="-47.1094" rx="0" ry="0" width="180" height="94.2188" />
</clipPath>
<path style="stroke: none; stroke-width: 1; stroke-dasharray: none; stroke-linecap: butt; stroke-dashoffset: 0; stroke-linejoin: miter; stroke-miterlimit: 4; fill: rgb(255,229,0); fill-rule: nonzero; opacity: 1;" vector-effect="non-scaling-stroke"  transform=" translate(-107.68, -65.92)" d="M 107.664 58.2124 C 103.309 58.2124 100.148 61.4597 100.148 65.9346 C 100.148 70.4095 103.309 73.6205 107.664 73.6205 C 112.02 73.6205 115.206 70.386 115.206 65.9346 C 115.206 61.4832 112.035 58.2124 107.664 58.2124 Z M 107.664 72.8754 C 103.719 72.8754 100.895 69.9569 100.895 65.9346 C 100.895 61.8782 103.727 58.9596 107.664 58.9596 C 111.636 58.9596 114.459 61.8782 114.459 65.9346 C 114.459 69.9548 111.602 72.8733 107.664 72.8733 L 107.664 72.8754 Z" stroke-linecap="round" />
</g>
		<g transform="matrix(1 0 0 1 -8.82 42.46)" clip-path="url(#CLIPPATH_16)"  >
<clipPath id="CLIPPATH_16" >
	<rect transform="matrix(1 0 0 1 8.82 -42.46)" id="clip0_660_1648" x="-90" y="-47.1094" rx="0" ry="0" width="180" height="94.2188" />
</clipPath>
<path style="stroke: none; stroke-width: 1; stroke-dasharray: none; stroke-linecap: butt; stroke-dashoffset: 0; stroke-linejoin: miter; stroke-miterlimit: 4; fill: rgb(255,229,0); fill-rule: nonzero; opacity: 1;" vector-effect="non-scaling-stroke"  transform=" translate(-81.18, -89.57)" d="M 75.7031 94.2208 L 86.6654 94.2208 L 86.6654 84.9124 L 75.7031 84.9124 L 75.7031 94.2208 Z M 76.45 85.6596 L 85.9185 85.6596 L 85.9185 93.4736 L 76.4479 93.4736 L 76.45 85.6596 Z" stroke-linecap="round" />
</g>
		<g transform="matrix(1 0 0 1 -8.82 17.9)" clip-path="url(#CLIPPATH_17)"  >
<clipPath id="CLIPPATH_17" >
	<rect transform="matrix(1 0 0 1 8.82 -17.9)" id="clip0_660_1648" x="-90" y="-47.1094" rx="0" ry="0" width="180" height="94.2188" />
</clipPath>
<path style="stroke: none; stroke-width: 1; stroke-dasharray: none; stroke-linecap: butt; stroke-dashoffset: 0; stroke-linejoin: miter; stroke-miterlimit: 4; fill: rgb(255,229,0); fill-rule: nonzero; opacity: 1;" vector-effect="non-scaling-stroke"  transform=" translate(-81.18, -65.01)" d="M 75.7031 80.9285 L 86.6654 80.9285 L 86.6654 49.0874 L 75.7031 49.0874 L 75.7031 80.9285 Z M 76.45 49.8346 L 85.9185 49.8346 L 85.9185 80.1812 L 76.4479 80.1812 L 76.45 49.8346 Z" stroke-linecap="round" />
</g>
		<g transform="matrix(1 0 0 1 -27.46 22.55)" clip-path="url(#CLIPPATH_18)"  >
<clipPath id="CLIPPATH_18" >
	<rect transform="matrix(1 0 0 1 27.45 -22.55)" id="clip0_660_1648" x="-90" y="-47.1094" rx="0" ry="0" width="180" height="94.2188" />
</clipPath>
<path style="stroke: none; stroke-width: 1; stroke-dasharray: none; stroke-linecap: butt; stroke-dashoffset: 0; stroke-linejoin: miter; stroke-miterlimit: 4; fill: rgb(255,229,0); fill-rule: nonzero; opacity: 1;" vector-effect="non-scaling-stroke"  transform=" translate(-62.55, -69.66)" d="M 69.0612 60.4668 C 69.0612 53.3915 64.7932 49.0874 57.7511 49.0874 L 50.2031 49.0874 L 50.2031 58.6948 L 54.4092 58.6948 C 56.7225 58.6948 58.0989 60.0697 58.0989 62.3499 L 58.0989 72.4846 L 50.3802 72.4846 L 50.3802 80.9285 L 58.3742 80.9285 L 58.3742 90.237 L 60.6277 90.237 L 74.887 75.0445 L 74.887 72.4825 L 69.0612 72.4825 L 69.0612 60.4668 Z M 74.1401 73.2297 L 74.1401 74.7499 L 60.3033 89.4812 L 59.1211 89.4812 L 59.1211 80.1812 L 51.1271 80.1812 L 51.1271 73.2297 L 58.8437 73.2297 L 58.8437 62.3414 C 58.8437 59.6257 57.1365 57.939 54.4071 57.939 L 50.9479 57.939 L 50.9479 49.8261 L 57.7425 49.8261 C 64.3579 49.8261 68.3122 53.7993 68.3122 60.4583 L 68.3122 73.2212 L 74.1401 73.2297 Z" stroke-linecap="round" />
</g>
		<g transform="matrix(1 0 0 1 -57.54 17.89)" clip-path="url(#CLIPPATH_19)"  >
<clipPath id="CLIPPATH_19" >
	<rect transform="matrix(1 0 0 1 57.53 -17.89)" id="clip0_660_1648" x="-90" y="-47.1094" rx="0" ry="0" width="180" height="94.2188" />
</clipPath>
<path style="stroke: none; stroke-width: 1; stroke-dasharray: none; stroke-linecap: butt; stroke-dashoffset: 0; stroke-linejoin: miter; stroke-miterlimit: 4; fill: rgb(255,229,0); fill-rule: nonzero; opacity: 1;" vector-effect="non-scaling-stroke"  transform=" translate(-32.47, -65)" d="M 32.466 57.0061 C 27.9847 57.0061 24.5938 60.4498 24.5938 65.0166 C 24.5938 69.5833 27.9783 72.9992 32.466 72.9992 C 36.9538 72.9992 40.3362 69.5683 40.3362 65.0166 C 40.3362 60.4648 36.9538 57.0061 32.466 57.0061 Z M 32.466 72.252 C 28.3602 72.252 25.3406 69.1499 25.3406 65.0166 C 25.3406 60.8832 28.3602 57.7576 32.466 57.7576 C 36.5718 57.7576 39.5893 60.8619 39.5893 65.0166 C 39.5893 69.1712 36.5975 72.252 32.466 72.252 Z" stroke-linecap="round" />
</g>
		<g transform="matrix(1 0 0 1 -57.23 17.87)" clip-path="url(#CLIPPATH_20)"  >
<clipPath id="CLIPPATH_20" >
	<rect transform="matrix(1 0 0 1 57.23 -17.87)" id="clip0_660_1648" x="-90" y="-47.1094" rx="0" ry="0" width="180" height="94.2188" />
</clipPath>
<path style="stroke: none; stroke-width: 1; stroke-dasharray: none; stroke-linecap: butt; stroke-dashoffset: 0; stroke-linejoin: miter; stroke-miterlimit: 4; fill: rgb(255,229,0); fill-rule: nonzero; opacity: 1;" vector-effect="non-scaling-stroke"  transform=" translate(-32.77, -64.98)" d="M 33.9322 48.0433 C 30.4426 48.0073 27.0486 49.1836 24.3292 51.3717 L 23.3903 49.1193 L 14.9141 49.1193 L 14.9141 80.9604 L 23.0851 80.9604 L 24.2076 78.4945 C 26.9482 80.7392 30.3905 81.9484 33.9322 81.9105 C 43.6632 81.9105 50.62 74.8928 50.62 65.0313 C 50.62 55.1464 43.6632 48.0433 33.9322 48.0433 Z M 45.3939 76.652 C 42.5108 79.5662 38.4392 81.1717 33.9322 81.1717 C 30.5632 81.2089 27.2887 80.0577 24.6835 77.9202 L 23.9323 77.301 L 22.605 80.2131 L 15.661 80.2131 L 15.661 49.8666 L 22.8909 49.8666 L 24.0241 52.5801 L 24.7987 51.9524 C 27.3852 49.8718 30.6135 48.7542 33.9322 48.7905 C 38.4349 48.7905 42.5044 50.411 45.3917 53.3551 C 48.279 56.2992 49.8731 60.4496 49.8731 65.042 C 49.8731 69.6343 48.2833 73.7335 45.4024 76.6541 L 45.3939 76.652 Z" stroke-linecap="round" />
</g>
		<g transform="matrix(1 0 0 1 -84.52 24.54)" clip-path="url(#CLIPPATH_21)"  >
<clipPath id="CLIPPATH_21" >
	<rect transform="matrix(1 0 0 1 84.52 -24.54)" id="clip0_660_1648" x="-90" y="-47.1094" rx="0" ry="0" width="180" height="94.2188" />
</clipPath>
<path style="stroke: none; stroke-width: 1; stroke-dasharray: none; stroke-linecap: butt; stroke-dashoffset: 0; stroke-linejoin: miter; stroke-miterlimit: 4; fill: rgb(255,229,0); fill-rule: nonzero; opacity: 1;" vector-effect="non-scaling-stroke"  transform=" translate(-5.48, -71.65)" d="M 0 94.2208 L 10.9644 94.2208 L 10.9644 49.0874 L 0 49.0874 L 0 94.2208 Z M 0.746897 49.8346 L 10.2175 49.8346 L 10.2175 93.4736 L 0.746897 93.4736 L 0.746897 49.8346 Z" stroke-linecap="round" />
</g>
</g>
</g>
<g transform="matrix(NaN NaN NaN NaN 0 0)"  >
<g style=""   >
</g>
</g>
<g transform="matrix(NaN NaN NaN NaN 0 0)"  >
<g style=""   >
</g>
</g>
</svg>